M48
;Layer_Color=9474304
;FILE_FORMAT=2:5
INCH,LZ
;TYPE=PLATED
T1F00S00C0.01968
T2F00S00C0.02800
T3F00S00C0.03500
T4F00S00C0.03543
T5F00S00C0.03937
T6F00S00C0.04331
T7F00S00C0.05118
T8F00S00C0.11811
%
T01
X0275Y045
Y046
X0615Y04175
X0635Y0405
X0725Y03875
X07375
Y04625
X0725
Y055
X07375
X05125Y0525
X04875
Y05
X05125
X05Y05125
X035Y055
X03375
X0325
X03125
X025Y05
Y04875
X02625
X0265Y047
X0255
X025Y06625
X02625Y0675
X0275Y06875
X03Y065
Y06375
X02875
X03125
Y065
X05
X05125Y06375
X05375
Y06625
X05125
X0525Y065
X055
T02
X03225Y043
X03525Y045
Y046
X0375Y0425
X041Y0395
X055Y0415
X0625Y05825
X0655
X0665
X0675
X0685
X065Y0605
X064Y061
X063Y0615
X059Y062
X053Y0605
X052Y061
X051Y0615
X0445Y05825
X0425
X0415
X0405
X041Y0605
X04Y061
X039Y0615
X035Y06
X029Y0605
X028Y061
X027Y0615
X0245Y062
Y05825
X0255
X0265
X0275Y047
X0265Y0625
X0255
X033
X034
X045Y06575
X046Y06625
X057Y0625
X058
X069Y06425
X07Y06475
X071Y069752
X0705Y0708347
X0715Y0715
X072Y072
T03
X031Y038
Y039
Y04
Y041
Y042
Y043
Y044
Y045
X034
Y044
Y043
Y042
Y041
Y04
Y039
Y038
X0615Y0435
Y0445
X0645
Y0435
X043Y065
X042
X041
X04
X039
X038
X037
X036
Y068
X037
X038
X039
X04
X041
X042
X043
X06Y0665
X061
X062
Y0635
X061
X06
X063
X064
X065
X066
X067
Y0665
X066
X065
X064
X063
T04
X026Y036
Y037
Y038
Y039
Y04
Y041
Y042
Y043
Y044
Y045
Y046
X04
Y045
Y044
Y043
Y042
Y041
Y04
Y039
Y038
Y037
Y036
X043
X044
X045
X046
X045Y0415
X047
X049Y04
Y039
Y036
X048
X047
X05
X052
X053
X054
X055
X056
X057
X058
X059
X061
X062
X058Y0385
Y0395
Y0405
Y0425
Y0435
Y0445
Y0465
X055
Y0445
Y0435
Y0425
Y0405
Y0395
Y0385
X052
Y0395
Y0405
Y044
X05
X049Y0465
X069Y046
X07
Y045
X069
Y044
X07
Y043
X069
Y042
X07
Y041
X069
Y04
X07
Y039
X069
Y038
X07
Y047
Y048
Y049
Y05
Y051
Y052
Y053
Y054
Y055
X069
Y054
Y053
Y052
Y051
Y05
Y049
Y048
Y047
Y059
X068
X067
X066
X065
X064
X063
X07
X062
X061
X06
X058
X057
X056
X055
X054
X053
X052
X051
X05
X049
X048
X0484252Y055
X0474252
X05
X051
X052
X053
X054
X055
X056
X057
X058Y0525
Y0515
Y0505
Y0485
Y0475
X055
Y0485
Y0505
Y0515
Y0525
X049Y0475
X047
X045
X0454252Y055
X0444252
X0434252
X0424252
X0414252
X0404252
X0394252
Y05325
X0384252
X0404252
X0414252
X041Y059
X04
X039
X038
X037
X036
X034
X033
X032
X042
X043
X044
X045
X046
X0464252Y055
X031Y059
X03
X029
X028
X027
X026
X025
X024
Y073
X025
X026
X027
X028
X029
X03
X031
X032
X033
X034
X036
X037
X038
X039
X04
X041
X042
X043
X044
X045
X046
X048
X049
X05
X051
X052
X053
X054
X055
X056
X057
X058
X06
X061
X062
X063
X064
X065
X066
X067
X068
X069
X07
T05
X06625Y04275
Y04375
Y04475
T06
X045Y044
X0463386
X0456693Y0447874
X0470079
X0476772Y044
T07
X0235Y0365472
Y0385157
Y0404843
Y0424528
X044Y0385
X0459685
X0635315Y0365
X0655
X0674685
X0304528Y0755
X0284842
X0265158
X0245472
X0365472
X0385157
X0404843
X0424528
X0485472
X0505158
X0524843
X0544528
X0605472
X0625157
X0644842
X0664528
T08
X03Y03625
X07375
X025Y06875
X07375Y07575
M30
