G04*
G04 #@! TF.GenerationSoftware,Altium Limited,Altium Designer,21.1.1 (26)*
G04*
G04 Layer_Color=12632256*
%FSLAX25Y25*%
%MOIN*%
G70*
G04*
G04 #@! TF.SameCoordinates,6FC1F31B-F578-4013-A3C6-3E9410FEC2B9*
G04*
G04*
G04 #@! TF.FilePolarity,Positive*
G04*
G01*
G75*
%ADD39C,0.05906*%
%ADD40R,0.05906X0.05906*%
%ADD41C,0.09843*%
%ADD42C,0.06000*%
%ADD43R,0.06000X0.06000*%
%ADD44C,0.15748*%
%ADD45R,0.09843X0.09843*%
%ADD46R,0.06000X0.06000*%
%ADD47O,0.05000X0.10000*%
%ADD48R,0.05000X0.10000*%
%ADD49O,0.10000X0.05000*%
%ADD50R,0.10000X0.05000*%
%ADD51R,0.05906X0.05906*%
D39*
X476772Y440000D02*
D03*
X470079Y447874D02*
D03*
X463386Y440000D02*
D03*
X456693Y447874D02*
D03*
X384252Y532500D02*
D03*
X394252D02*
D03*
X404252D02*
D03*
X490000Y475000D02*
D03*
Y400000D02*
D03*
D40*
X450000Y440000D02*
D03*
X414252Y532500D02*
D03*
D41*
X674685Y365000D02*
D03*
X655000D02*
D03*
X635315D02*
D03*
X664528Y755000D02*
D03*
X644842D02*
D03*
X625157D02*
D03*
X605472D02*
D03*
X304528D02*
D03*
X284842D02*
D03*
X265158D02*
D03*
X245472D02*
D03*
X424528D02*
D03*
X404843D02*
D03*
X385157D02*
D03*
X365472D02*
D03*
X235000Y424528D02*
D03*
Y404843D02*
D03*
Y385157D02*
D03*
Y365472D02*
D03*
X544528Y755000D02*
D03*
X524843D02*
D03*
X505158D02*
D03*
X485472D02*
D03*
X440000Y385000D02*
D03*
D42*
X394252Y550000D02*
D03*
X404252D02*
D03*
X414252D02*
D03*
X434252D02*
D03*
X444252D02*
D03*
X454252D02*
D03*
X464252D02*
D03*
X474252D02*
D03*
X484252D02*
D03*
X500000D02*
D03*
X510000D02*
D03*
X520000D02*
D03*
X530000D02*
D03*
X540000D02*
D03*
X550000D02*
D03*
X560000D02*
D03*
X570000D02*
D03*
X620000Y360000D02*
D03*
X430000D02*
D03*
X440000D02*
D03*
X450000D02*
D03*
X460000D02*
D03*
X470000D02*
D03*
X500000D02*
D03*
X610000D02*
D03*
X520000D02*
D03*
X530000D02*
D03*
X540000D02*
D03*
X550000D02*
D03*
X560000D02*
D03*
X570000D02*
D03*
X580000D02*
D03*
X590000D02*
D03*
X700000Y550000D02*
D03*
X690000D02*
D03*
Y540000D02*
D03*
X700000D02*
D03*
X690000Y530000D02*
D03*
X700000D02*
D03*
X690000Y520000D02*
D03*
X700000D02*
D03*
X690000Y510000D02*
D03*
X700000D02*
D03*
X690000Y500000D02*
D03*
X700000D02*
D03*
X690000Y490000D02*
D03*
X700000D02*
D03*
X690000Y480000D02*
D03*
X700000D02*
D03*
X690000Y470000D02*
D03*
X700000D02*
D03*
X690000Y460000D02*
D03*
X700000D02*
D03*
X690000Y450000D02*
D03*
X700000D02*
D03*
X690000Y440000D02*
D03*
X700000D02*
D03*
X690000Y430000D02*
D03*
X700000D02*
D03*
X690000Y420000D02*
D03*
X700000D02*
D03*
X690000Y410000D02*
D03*
X700000D02*
D03*
X690000Y400000D02*
D03*
X700000D02*
D03*
X690000Y390000D02*
D03*
X700000D02*
D03*
X500000Y440000D02*
D03*
X470000Y475000D02*
D03*
X450000Y415000D02*
D03*
X360000Y590000D02*
D03*
X370000D02*
D03*
X380000D02*
D03*
X390000D02*
D03*
X400000D02*
D03*
X410000D02*
D03*
X420000D02*
D03*
X430000D02*
D03*
X440000D02*
D03*
X450000D02*
D03*
X460000D02*
D03*
X600000D02*
D03*
X610000D02*
D03*
X620000D02*
D03*
X630000D02*
D03*
X640000D02*
D03*
X650000D02*
D03*
X660000D02*
D03*
X670000D02*
D03*
X680000D02*
D03*
X690000D02*
D03*
X700000D02*
D03*
X240000D02*
D03*
X250000D02*
D03*
X260000D02*
D03*
X270000D02*
D03*
X280000D02*
D03*
X290000D02*
D03*
X300000D02*
D03*
X310000D02*
D03*
X320000D02*
D03*
X330000D02*
D03*
X340000D02*
D03*
X480000D02*
D03*
X490000D02*
D03*
X500000D02*
D03*
X510000D02*
D03*
X520000D02*
D03*
X530000D02*
D03*
X540000D02*
D03*
X550000D02*
D03*
X560000D02*
D03*
X570000D02*
D03*
X580000D02*
D03*
Y730000D02*
D03*
X570000D02*
D03*
X560000D02*
D03*
X550000D02*
D03*
X540000D02*
D03*
X530000D02*
D03*
X520000D02*
D03*
X510000D02*
D03*
X500000D02*
D03*
X490000D02*
D03*
X480000D02*
D03*
X460000D02*
D03*
X450000D02*
D03*
X440000D02*
D03*
X430000D02*
D03*
X420000D02*
D03*
X410000D02*
D03*
X400000D02*
D03*
X390000D02*
D03*
X380000D02*
D03*
X370000D02*
D03*
X360000D02*
D03*
X700000D02*
D03*
X690000D02*
D03*
X680000D02*
D03*
X670000D02*
D03*
X660000D02*
D03*
X650000D02*
D03*
X640000D02*
D03*
X630000D02*
D03*
X620000D02*
D03*
X610000D02*
D03*
X600000D02*
D03*
X260000Y460000D02*
D03*
Y450000D02*
D03*
Y440000D02*
D03*
Y430000D02*
D03*
Y420000D02*
D03*
Y410000D02*
D03*
Y400000D02*
D03*
Y390000D02*
D03*
Y380000D02*
D03*
Y370000D02*
D03*
Y360000D02*
D03*
X340000Y730000D02*
D03*
X330000D02*
D03*
X320000D02*
D03*
X310000D02*
D03*
X300000D02*
D03*
X290000D02*
D03*
X280000D02*
D03*
X270000D02*
D03*
X260000D02*
D03*
X250000D02*
D03*
X240000D02*
D03*
X580000Y435000D02*
D03*
Y425000D02*
D03*
Y475000D02*
D03*
Y465000D02*
D03*
Y395000D02*
D03*
Y385000D02*
D03*
Y515000D02*
D03*
Y505000D02*
D03*
X550000Y515000D02*
D03*
Y505000D02*
D03*
X520000Y395000D02*
D03*
Y385000D02*
D03*
X550000Y475000D02*
D03*
Y465000D02*
D03*
Y435000D02*
D03*
Y425000D02*
D03*
Y395000D02*
D03*
Y385000D02*
D03*
X400000Y360000D02*
D03*
Y370000D02*
D03*
Y380000D02*
D03*
Y390000D02*
D03*
Y400000D02*
D03*
Y410000D02*
D03*
Y420000D02*
D03*
Y430000D02*
D03*
Y440000D02*
D03*
Y450000D02*
D03*
Y460000D02*
D03*
X662500Y427500D02*
D03*
Y437500D02*
D03*
Y447500D02*
D03*
D43*
X424252Y550000D02*
D03*
X480000Y360000D02*
D03*
X490000D02*
D03*
X690000Y380000D02*
D03*
X700000D02*
D03*
X520000Y440000D02*
D03*
X450000Y475000D02*
D03*
X470000Y415000D02*
D03*
D44*
X300000Y362500D02*
D03*
X250000Y687500D02*
D03*
X737500Y757500D02*
D03*
Y362500D02*
D03*
D45*
X459685Y385000D02*
D03*
D46*
X580000Y445000D02*
D03*
Y485000D02*
D03*
Y405000D02*
D03*
Y525000D02*
D03*
X550000D02*
D03*
X520000Y405000D02*
D03*
X550000Y485000D02*
D03*
Y445000D02*
D03*
Y405000D02*
D03*
D47*
X670000Y665000D02*
D03*
X660000D02*
D03*
X650000D02*
D03*
X640000D02*
D03*
X630000D02*
D03*
X620000D02*
D03*
X610000D02*
D03*
X600000D02*
D03*
X670000Y635000D02*
D03*
X660000D02*
D03*
X650000D02*
D03*
X640000D02*
D03*
X630000D02*
D03*
X620000D02*
D03*
X610000D02*
D03*
X430000Y680000D02*
D03*
X420000D02*
D03*
X410000D02*
D03*
X400000D02*
D03*
X390000D02*
D03*
X380000D02*
D03*
X370000D02*
D03*
X360000D02*
D03*
X430000Y650000D02*
D03*
X420000D02*
D03*
X410000D02*
D03*
X400000D02*
D03*
X390000D02*
D03*
X380000D02*
D03*
X370000D02*
D03*
D48*
X600000Y635000D02*
D03*
X360000Y650000D02*
D03*
D49*
X310000Y450000D02*
D03*
Y440000D02*
D03*
Y430000D02*
D03*
Y420000D02*
D03*
Y410000D02*
D03*
Y400000D02*
D03*
Y390000D02*
D03*
Y380000D02*
D03*
X340000Y450000D02*
D03*
Y440000D02*
D03*
Y430000D02*
D03*
Y420000D02*
D03*
Y410000D02*
D03*
Y400000D02*
D03*
Y390000D02*
D03*
X615000Y445000D02*
D03*
Y435000D02*
D03*
X645000Y445000D02*
D03*
D50*
X340000Y380000D02*
D03*
X645000Y435000D02*
D03*
D51*
X490000Y465000D02*
D03*
Y390000D02*
D03*
M02*
