G04*
G04 #@! TF.GenerationSoftware,Altium Limited,Altium Designer,21.1.1 (26)*
G04*
G04 Layer_Color=65535*
%FSLAX25Y25*%
%MOIN*%
G70*
G04*
G04 #@! TF.SameCoordinates,6FC1F31B-F578-4013-A3C6-3E9410FEC2B9*
G04*
G04*
G04 #@! TF.FilePolarity,Positive*
G04*
G01*
G75*
%ADD10C,0.00394*%
%ADD11C,0.01000*%
%ADD12C,0.00787*%
%ADD13R,0.01546X0.01502*%
D10*
X524173Y440000D02*
G03*
X524173Y440000I-14173J0D01*
G01*
X474173Y475000D02*
G03*
X474173Y475000I-14173J0D01*
G01*
Y415000D02*
G03*
X474173Y415000I-14173J0D01*
G01*
X360000Y600000D02*
X460000D01*
X600000D02*
X700000D01*
X240000D02*
X340000D01*
X480000D02*
X580000D01*
X480000Y720000D02*
X580000D01*
X360000D02*
X460000D01*
X600000D02*
X700000D01*
X270000Y360000D02*
Y460000D01*
X240000Y720000D02*
X340000D01*
X593780Y417283D02*
Y452716D01*
X566221Y417283D02*
X593780D01*
X566221D02*
Y452716D01*
X593780D01*
X568189Y450748D02*
X574094D01*
Y419252D02*
Y450748D01*
X568189Y419252D02*
X574094D01*
X568189D02*
Y450748D01*
X593780Y457283D02*
Y492717D01*
X566221Y457283D02*
X593780D01*
X566221D02*
Y492717D01*
X593780D01*
X568189Y490748D02*
X574094D01*
Y459252D02*
Y490748D01*
X568189Y459252D02*
X574094D01*
X568189D02*
Y490748D01*
X593780Y377284D02*
Y412716D01*
X566221Y377284D02*
X593780D01*
X566221D02*
Y412716D01*
X593780D01*
X568189Y410748D02*
X574094D01*
Y379252D02*
Y410748D01*
X568189Y379252D02*
X574094D01*
X568189D02*
Y410748D01*
X593780Y497284D02*
Y532717D01*
X566221Y497284D02*
X593780D01*
X566221D02*
Y532717D01*
X593780D01*
X568189Y530748D02*
X574094D01*
Y499252D02*
Y530748D01*
X568189Y499252D02*
X574094D01*
X568189D02*
Y530748D01*
X563779Y497284D02*
Y532717D01*
X536221Y497284D02*
X563779D01*
X536221D02*
Y532717D01*
X563779D01*
X538189Y530748D02*
X544095D01*
Y499252D02*
Y530748D01*
X538189Y499252D02*
X544095D01*
X538189D02*
Y530748D01*
X533779Y377284D02*
Y412716D01*
X506220Y377284D02*
X533779D01*
X506220D02*
Y412716D01*
X533779D01*
X508189Y410748D02*
X514094D01*
Y379252D02*
Y410748D01*
X508189Y379252D02*
X514094D01*
X508189D02*
Y410748D01*
X563779Y457283D02*
Y492717D01*
X536221Y457283D02*
X563779D01*
X536221D02*
Y492717D01*
X563779D01*
X538189Y490748D02*
X544095D01*
Y459252D02*
Y490748D01*
X538189Y459252D02*
X544095D01*
X538189D02*
Y490748D01*
X563779Y417283D02*
Y452716D01*
X536221Y417283D02*
X563779D01*
X536221D02*
Y452716D01*
X563779D01*
X538189Y450748D02*
X544095D01*
Y419252D02*
Y450748D01*
X538189Y419252D02*
X544095D01*
X538189D02*
Y450748D01*
X563779Y377284D02*
Y412716D01*
X536221Y377284D02*
X563779D01*
X536221D02*
Y412716D01*
X563779D01*
X538189Y410748D02*
X544095D01*
Y379252D02*
Y410748D01*
X538189Y379252D02*
X544095D01*
X538189D02*
Y410748D01*
X612500Y407500D02*
X617500D01*
Y412500D01*
X612500D02*
X617500D01*
X612500Y407500D02*
Y412500D01*
X390000Y360000D02*
Y460000D01*
X657500Y453500D02*
X668500D01*
Y421500D02*
Y453500D01*
X656500Y452500D02*
X657500Y453500D01*
X656500Y422500D02*
Y452500D01*
Y422500D02*
X657500Y421500D01*
X668500D01*
D11*
X595000Y647500D02*
G03*
X595000Y652500I0J2500D01*
G01*
X355000Y662500D02*
G03*
X355000Y667500I0J2500D01*
G01*
X327500Y375000D02*
G03*
X322500Y375000I-2500J0D01*
G01*
X632500Y430000D02*
G03*
X627500Y430000I-2500J0D01*
G01*
X445000Y435000D02*
X446732D01*
X445000D02*
Y451142D01*
Y452992D01*
X480709D01*
X482000D01*
X446732Y435000D02*
X482000D01*
Y436567D01*
Y452992D01*
X625472Y349252D02*
X684528D01*
Y380748D01*
X625472D02*
X684528D01*
X625472Y349252D02*
Y380748D01*
X500000Y545000D02*
X570000D01*
X674370Y745157D02*
Y764843D01*
X595630D02*
X674370D01*
X595630Y745157D02*
Y764843D01*
Y745157D02*
X674370D01*
X314370D02*
Y764843D01*
X235630D02*
X314370D01*
X235630Y745157D02*
Y764843D01*
Y745157D02*
X314370D01*
X434370D02*
Y764843D01*
X355630D02*
X434370D01*
X355630Y745157D02*
Y764843D01*
Y745157D02*
X434370D01*
X225157Y434370D02*
X244843D01*
X225157Y355630D02*
Y434370D01*
Y355630D02*
X244843D01*
Y434370D01*
X554370Y745157D02*
Y764843D01*
X475630D02*
X554370D01*
X475630Y745157D02*
Y764843D01*
Y745157D02*
X554370D01*
X430158Y375157D02*
X469528D01*
X430158D02*
Y394843D01*
X469528D01*
Y375157D02*
Y394843D01*
X595000Y643500D02*
X675000D01*
Y656500D01*
X595000D02*
X675000D01*
X595000Y652500D02*
Y656500D01*
Y643500D02*
Y647500D01*
X355000Y658500D02*
X435000D01*
Y671500D01*
X355000D02*
X435000D01*
X355000Y667500D02*
Y671500D01*
Y658500D02*
Y662500D01*
X331500Y375000D02*
Y455000D01*
X318500D02*
X331500D01*
X318500Y375000D02*
Y455000D01*
Y375000D02*
X322500D01*
X327500D02*
X331500D01*
X636500Y430000D02*
Y450000D01*
X623500D02*
X636500D01*
X623500Y430000D02*
Y450000D01*
Y430000D02*
X627500D01*
X632500D02*
X636500D01*
X254999Y536193D02*
X251000D01*
Y533194D01*
X252999D01*
X251000D01*
Y530195D01*
X259997Y536193D02*
X257998D01*
X256998Y535194D01*
Y531195D01*
X257998Y530195D01*
X259997D01*
X260997Y531195D01*
Y535194D01*
X259997Y536193D01*
X262996Y530195D02*
Y534194D01*
X264996Y536193D01*
X266995Y534194D01*
Y530195D01*
Y533194D01*
X262996D01*
X268994Y530195D02*
Y536193D01*
X270993Y534194D01*
X272993Y536193D01*
Y530195D01*
X274992Y536193D02*
Y530195D01*
X277991D01*
X278991Y531195D01*
Y532195D01*
X277991Y533194D01*
X274992D01*
X277991D01*
X278991Y534194D01*
Y535194D01*
X277991Y536193D01*
X274992D01*
X283989D02*
X281990D01*
X280990Y535194D01*
Y531195D01*
X281990Y530195D01*
X283989D01*
X284989Y531195D01*
Y535194D01*
X283989Y536193D01*
X286988D02*
X290987D01*
X288988D01*
Y530195D01*
X302983Y535194D02*
X301983Y536193D01*
X299984D01*
X298985Y535194D01*
Y531195D01*
X299984Y530195D01*
X301983D01*
X302983Y531195D01*
X307982Y536193D02*
X305982D01*
X304982Y535194D01*
Y531195D01*
X305982Y530195D01*
X307982D01*
X308981Y531195D01*
Y535194D01*
X307982Y536193D01*
X310981Y530195D02*
Y536193D01*
X314979Y530195D01*
Y536193D01*
X316979D02*
X320977D01*
X318978D01*
Y530195D01*
X322977D02*
Y536193D01*
X325976D01*
X326975Y535194D01*
Y533194D01*
X325976Y532195D01*
X322977D01*
X324976D02*
X326975Y530195D01*
X331974Y536193D02*
X329975D01*
X328975Y535194D01*
Y531195D01*
X329975Y530195D01*
X331974D01*
X332974Y531195D01*
Y535194D01*
X331974Y536193D01*
X334973D02*
Y530195D01*
X338971D01*
X340971Y536193D02*
Y530195D01*
X344970D01*
X350968Y536193D02*
X346969D01*
Y530195D01*
X350968D01*
X346969Y533194D02*
X348968D01*
X352967Y530195D02*
Y536193D01*
X355966D01*
X356966Y535194D01*
Y533194D01*
X355966Y532195D01*
X352967D01*
X354966D02*
X356966Y530195D01*
X314979Y525596D02*
X313980Y526596D01*
X311980D01*
X310981Y525596D01*
Y524596D01*
X311980Y523597D01*
X313980D01*
X314979Y522597D01*
Y521597D01*
X313980Y520598D01*
X311980D01*
X310981Y521597D01*
X316979Y526596D02*
X320977D01*
X318978D01*
Y520598D01*
X322977Y526596D02*
Y525596D01*
X324976Y523597D01*
X326975Y525596D01*
Y526596D01*
X324976Y523597D02*
Y520598D01*
X328975D02*
Y526596D01*
X331974D01*
X332974Y525596D01*
Y523597D01*
X331974Y522597D01*
X328975D01*
X330974D02*
X332974Y520598D01*
X337972Y526596D02*
X335972D01*
X334973Y525596D01*
Y521597D01*
X335972Y520598D01*
X337972D01*
X338971Y521597D01*
Y525596D01*
X337972Y526596D01*
X340971Y520598D02*
Y526596D01*
X342970Y524596D01*
X344970Y526596D01*
Y520598D01*
X350968Y526596D02*
X346969D01*
Y520598D01*
X350968D01*
X346969Y523597D02*
X348968D01*
X352967Y520598D02*
Y526596D01*
X356966Y520598D01*
Y526596D01*
X305982Y511000D02*
X301983D01*
X305982Y514999D01*
Y515998D01*
X304982Y516998D01*
X302983D01*
X301983Y515998D01*
X307982D02*
X308981Y516998D01*
X310981D01*
X311980Y515998D01*
Y512000D01*
X310981Y511000D01*
X308981D01*
X307982Y512000D01*
Y515998D01*
X313980Y511000D02*
X315979D01*
X314979D01*
Y516998D01*
X313980Y515998D01*
X318978Y512000D02*
X319978Y511000D01*
X321977D01*
X322977Y512000D01*
Y515998D01*
X321977Y516998D01*
X319978D01*
X318978Y515998D01*
Y514999D01*
X319978Y513999D01*
X322977D01*
X324976Y511000D02*
Y512000D01*
X325976D01*
Y511000D01*
X324976D01*
X329975Y515998D02*
X330974Y516998D01*
X332974D01*
X333973Y515998D01*
Y512000D01*
X332974Y511000D01*
X330974D01*
X329975Y512000D01*
Y515998D01*
X335972Y512000D02*
X336972Y511000D01*
X338971D01*
X339971Y512000D01*
Y515998D01*
X338971Y516998D01*
X336972D01*
X335972Y515998D01*
Y514999D01*
X336972Y513999D01*
X339971D01*
X341971Y511000D02*
Y512000D01*
X342970D01*
Y511000D01*
X341971D01*
X346969Y515998D02*
X347969Y516998D01*
X349968D01*
X350968Y515998D01*
Y512000D01*
X349968Y511000D01*
X347969D01*
X346969Y512000D01*
Y515998D01*
X355966Y511000D02*
Y516998D01*
X352967Y513999D01*
X356966D01*
X680000Y750000D02*
Y755998D01*
X681999Y753999D01*
X683999Y755998D01*
Y750000D01*
X688997Y755998D02*
X686998D01*
X685998Y754998D01*
Y751000D01*
X686998Y750000D01*
X688997D01*
X689997Y751000D01*
Y754998D01*
X688997Y755998D01*
X691996D02*
X695995D01*
X693996D01*
Y750000D01*
X697994D02*
X699994D01*
X698994D01*
Y755998D01*
X697994Y754998D01*
X240000Y440000D02*
X234002D01*
X236001Y441999D01*
X234002Y443999D01*
X240000D01*
X234002Y448997D02*
Y446998D01*
X235002Y445998D01*
X239000D01*
X240000Y446998D01*
Y448997D01*
X239000Y449997D01*
X235002D01*
X234002Y448997D01*
Y451996D02*
Y455995D01*
Y453996D01*
X240000D01*
X234002Y461993D02*
Y457994D01*
X237001D01*
X236001Y459994D01*
Y460993D01*
X237001Y461993D01*
X239000D01*
X240000Y460993D01*
Y458994D01*
X239000Y457994D01*
X320000Y750000D02*
Y755998D01*
X321999Y753999D01*
X323999Y755998D01*
Y750000D01*
X328997Y755998D02*
X326998D01*
X325998Y754998D01*
Y751000D01*
X326998Y750000D01*
X328997D01*
X329997Y751000D01*
Y754998D01*
X328997Y755998D01*
X331996D02*
X335995D01*
X333996D01*
Y750000D01*
X340993D02*
Y755998D01*
X337994Y752999D01*
X341993D01*
X440000Y750000D02*
Y755998D01*
X441999Y753999D01*
X443999Y755998D01*
Y750000D01*
X448997Y755998D02*
X446998D01*
X445998Y754998D01*
Y751000D01*
X446998Y750000D01*
X448997D01*
X449997Y751000D01*
Y754998D01*
X448997Y755998D01*
X451996D02*
X455995D01*
X453996D01*
Y750000D01*
X457994Y754998D02*
X458994Y755998D01*
X460993D01*
X461993Y754998D01*
Y753999D01*
X460993Y752999D01*
X459994D01*
X460993D01*
X461993Y751999D01*
Y751000D01*
X460993Y750000D01*
X458994D01*
X457994Y751000D01*
X560000Y750000D02*
Y755998D01*
X561999Y753999D01*
X563999Y755998D01*
Y750000D01*
X568997Y755998D02*
X566998D01*
X565998Y754998D01*
Y751000D01*
X566998Y750000D01*
X568997D01*
X569997Y751000D01*
Y754998D01*
X568997Y755998D01*
X571996D02*
X575995D01*
X573995D01*
Y750000D01*
X581993D02*
X577994D01*
X581993Y753999D01*
Y754998D01*
X580993Y755998D01*
X578994D01*
X577994Y754998D01*
X392500Y518498D02*
X394499D01*
X393500D01*
Y512500D01*
X392500D01*
X394499D01*
X401497D02*
X397498D01*
X401497Y516499D01*
Y517498D01*
X400497Y518498D01*
X398498D01*
X397498Y517498D01*
X407495D02*
X406496Y518498D01*
X404496D01*
X403496Y517498D01*
Y513500D01*
X404496Y512500D01*
X406496D01*
X407495Y513500D01*
X497800Y467500D02*
X499799D01*
X498800D01*
Y473498D01*
X497800Y472498D01*
X502798Y467500D02*
Y473498D01*
X506797Y467500D01*
Y473498D01*
X512795D02*
X508796D01*
Y470499D01*
X510796Y471499D01*
X511796D01*
X512795Y470499D01*
Y468500D01*
X511796Y467500D01*
X509796D01*
X508796Y468500D01*
X514794Y472498D02*
X515794Y473498D01*
X517794D01*
X518793Y472498D01*
Y471499D01*
X517794Y470499D01*
X518793Y469499D01*
Y468500D01*
X517794Y467500D01*
X515794D01*
X514794Y468500D01*
Y469499D01*
X515794Y470499D01*
X514794Y471499D01*
Y472498D01*
X515794Y470499D02*
X517794D01*
X520793Y467500D02*
X522792D01*
X521792D01*
Y473498D01*
X520793Y472498D01*
X525791Y468500D02*
X526791Y467500D01*
X528790D01*
X529790Y468500D01*
Y472498D01*
X528790Y473498D01*
X526791D01*
X525791Y472498D01*
Y471499D01*
X526791Y470499D01*
X529790D01*
X445099Y367500D02*
X441100D01*
X445099Y371499D01*
Y372498D01*
X444099Y373498D01*
X442100D01*
X441100Y372498D01*
X450097Y367500D02*
Y373498D01*
X447098Y370499D01*
X451097D01*
X453096Y373498D02*
Y369499D01*
X455095Y367500D01*
X457095Y369499D01*
Y373498D01*
X555100Y405900D02*
X561098D01*
X559099Y403901D01*
X561098Y401901D01*
X555100D01*
X561098Y396903D02*
Y398902D01*
X560098Y399902D01*
X556100D01*
X555100Y398902D01*
Y396903D01*
X556100Y395903D01*
X560098D01*
X561098Y396903D01*
Y393904D02*
Y389905D01*
Y391904D01*
X555100D01*
Y383907D02*
Y387906D01*
X559099Y383907D01*
X560098D01*
X561098Y384907D01*
Y386906D01*
X560098Y387906D01*
X555500Y445500D02*
X561498D01*
X559499Y443501D01*
X561498Y441501D01*
X555500D01*
X561498Y436503D02*
Y438502D01*
X560498Y439502D01*
X556500D01*
X555500Y438502D01*
Y436503D01*
X556500Y435503D01*
X560498D01*
X561498Y436503D01*
Y433504D02*
Y429505D01*
Y431504D01*
X555500D01*
X560498Y427506D02*
X561498Y426506D01*
Y424507D01*
X560498Y423507D01*
X559499D01*
X558499Y424507D01*
Y425506D01*
Y424507D01*
X557499Y423507D01*
X556500D01*
X555500Y424507D01*
Y426506D01*
X556500Y427506D01*
X555300Y485300D02*
X561298D01*
X559299Y483301D01*
X561298Y481301D01*
X555300D01*
X561298Y476303D02*
Y478302D01*
X560298Y479302D01*
X556300D01*
X555300Y478302D01*
Y476303D01*
X556300Y475303D01*
X560298D01*
X561298Y476303D01*
Y473304D02*
Y469305D01*
Y471305D01*
X555300D01*
Y464307D02*
X561298D01*
X558299Y467306D01*
Y463307D01*
X525000Y405000D02*
X530998D01*
X528999Y403001D01*
X530998Y401001D01*
X525000D01*
X530998Y396003D02*
Y398002D01*
X529998Y399002D01*
X526000D01*
X525000Y398002D01*
Y396003D01*
X526000Y395003D01*
X529998D01*
X530998Y396003D01*
Y393004D02*
Y389005D01*
Y391004D01*
X525000D01*
Y387006D02*
Y385006D01*
Y386006D01*
X530998D01*
X529998Y387006D01*
X322202Y395400D02*
Y399399D01*
X323202D01*
X327200Y395400D01*
X328200D01*
Y404397D02*
X322202D01*
X325201Y401398D01*
Y405397D01*
X322202Y407396D02*
X328200D01*
X325201D01*
Y411395D01*
X322202D01*
X328200D01*
X323202Y417393D02*
X322202Y416393D01*
Y414394D01*
X323202Y413394D01*
X327200D01*
X328200Y414394D01*
Y416393D01*
X327200Y417393D01*
X328200Y419392D02*
Y421392D01*
Y420392D01*
X322202D01*
X323202Y419392D01*
X322202Y428389D02*
Y424391D01*
X325201D01*
X324201Y426390D01*
Y427390D01*
X325201Y428389D01*
X327200D01*
X328200Y427390D01*
Y425390D01*
X327200Y424391D01*
X322202Y430389D02*
Y434387D01*
X323202D01*
X327200Y430389D01*
X328200D01*
X375300Y667898D02*
X379299D01*
Y666898D01*
X375300Y662900D01*
Y661900D01*
X384297D02*
Y667898D01*
X381298Y664899D01*
X385297D01*
X387296Y667898D02*
Y661900D01*
Y664899D01*
X391295D01*
Y667898D01*
Y661900D01*
X397293Y666898D02*
X396293Y667898D01*
X394294D01*
X393294Y666898D01*
Y662900D01*
X394294Y661900D01*
X396293D01*
X397293Y662900D01*
X399292Y661900D02*
X401292D01*
X400292D01*
Y667898D01*
X399292Y666898D01*
X408289Y667898D02*
X404291D01*
Y664899D01*
X406290Y665899D01*
X407290D01*
X408289Y664899D01*
Y662900D01*
X407290Y661900D01*
X405290D01*
X404291Y662900D01*
X410289Y667898D02*
X414287D01*
Y666898D01*
X410289Y662900D01*
Y661900D01*
X480000Y610998D02*
X483999D01*
X481999D01*
Y605000D01*
X485998D02*
Y610998D01*
X487997Y608999D01*
X489997Y610998D01*
Y605000D01*
X495995Y609998D02*
X494995Y610998D01*
X492996D01*
X491996Y609998D01*
Y606000D01*
X492996Y605000D01*
X494995D01*
X495995Y606000D01*
X501993Y605000D02*
X497994D01*
X501993Y608999D01*
Y609998D01*
X500993Y610998D01*
X498994D01*
X497994Y609998D01*
X503992Y605000D02*
X505992D01*
X504992D01*
Y610998D01*
X503992Y609998D01*
X512989Y610998D02*
X510990Y609998D01*
X508991Y607999D01*
Y606000D01*
X509990Y605000D01*
X511990D01*
X512989Y606000D01*
Y606999D01*
X511990Y607999D01*
X508991D01*
X514989Y609998D02*
X515988Y610998D01*
X517988D01*
X518987Y609998D01*
Y606000D01*
X517988Y605000D01*
X515988D01*
X514989Y606000D01*
Y609998D01*
X520987Y607999D02*
X524986D01*
X526985Y610998D02*
Y605000D01*
X529984D01*
X530983Y606000D01*
Y606999D01*
X529984Y607999D01*
X526985D01*
X529984D01*
X530983Y608999D01*
Y609998D01*
X529984Y610998D01*
X526985D01*
X535982D02*
X533983D01*
X532983Y609998D01*
Y606000D01*
X533983Y605000D01*
X535982D01*
X536982Y606000D01*
Y609998D01*
X535982Y610998D01*
X538981D02*
Y605000D01*
X541980D01*
X542980Y606000D01*
Y606999D01*
X541980Y607999D01*
X538981D01*
X541980D01*
X542980Y608999D01*
Y609998D01*
X541980Y610998D01*
X538981D01*
X544979Y604000D02*
X548978D01*
X550977Y610998D02*
Y605000D01*
X554976D01*
X556975Y610998D02*
Y606999D01*
X558974Y605000D01*
X560974Y606999D01*
Y610998D01*
X240000D02*
X243999D01*
X241999D01*
Y605000D01*
X245998D02*
Y610998D01*
X247997Y608999D01*
X249997Y610998D01*
Y605000D01*
X255995Y609998D02*
X254995Y610998D01*
X252996D01*
X251996Y609998D01*
Y606000D01*
X252996Y605000D01*
X254995D01*
X255995Y606000D01*
X261993Y605000D02*
X257994D01*
X261993Y608999D01*
Y609998D01*
X260993Y610998D01*
X258994D01*
X257994Y609998D01*
X263992Y605000D02*
X265992D01*
X264992D01*
Y610998D01*
X263992Y609998D01*
X272989Y610998D02*
X270990Y609998D01*
X268991Y607999D01*
Y606000D01*
X269990Y605000D01*
X271990D01*
X272989Y606000D01*
Y606999D01*
X271990Y607999D01*
X268991D01*
X274989Y609998D02*
X275988Y610998D01*
X277988D01*
X278987Y609998D01*
Y606000D01*
X277988Y605000D01*
X275988D01*
X274989Y606000D01*
Y609998D01*
X280987Y607999D02*
X284985D01*
X286985Y610998D02*
Y605000D01*
X289984D01*
X290984Y606000D01*
Y606999D01*
X289984Y607999D01*
X286985D01*
X289984D01*
X290984Y608999D01*
Y609998D01*
X289984Y610998D01*
X286985D01*
X295982D02*
X293983D01*
X292983Y609998D01*
Y606000D01*
X293983Y605000D01*
X295982D01*
X296982Y606000D01*
Y609998D01*
X295982Y610998D01*
X298981D02*
Y605000D01*
X301980D01*
X302980Y606000D01*
Y606999D01*
X301980Y607999D01*
X298981D01*
X301980D01*
X302980Y608999D01*
Y609998D01*
X301980Y610998D01*
X298981D01*
X304979Y604000D02*
X308978D01*
X310977Y610998D02*
Y605000D01*
X314976D01*
X316975Y610998D02*
Y606999D01*
X318974Y605000D01*
X320974Y606999D01*
Y610998D01*
X240000Y708498D02*
X243999D01*
X241999D01*
Y702500D01*
X245998D02*
Y708498D01*
X247997Y706499D01*
X249997Y708498D01*
Y702500D01*
X255995Y707498D02*
X254995Y708498D01*
X252996D01*
X251996Y707498D01*
Y703500D01*
X252996Y702500D01*
X254995D01*
X255995Y703500D01*
X261993Y702500D02*
X257994D01*
X261993Y706499D01*
Y707498D01*
X260993Y708498D01*
X258994D01*
X257994Y707498D01*
X263992Y702500D02*
X265992D01*
X264992D01*
Y708498D01*
X263992Y707498D01*
X272989Y708498D02*
X270990Y707498D01*
X268991Y705499D01*
Y703500D01*
X269990Y702500D01*
X271990D01*
X272989Y703500D01*
Y704499D01*
X271990Y705499D01*
X268991D01*
X274989Y707498D02*
X275988Y708498D01*
X277988D01*
X278987Y707498D01*
Y703500D01*
X277988Y702500D01*
X275988D01*
X274989Y703500D01*
Y707498D01*
X280987Y705499D02*
X284985D01*
X286985Y708498D02*
Y702500D01*
X289984D01*
X290984Y703500D01*
Y704499D01*
X289984Y705499D01*
X286985D01*
X289984D01*
X290984Y706499D01*
Y707498D01*
X289984Y708498D01*
X286985D01*
X295982D02*
X293983D01*
X292983Y707498D01*
Y703500D01*
X293983Y702500D01*
X295982D01*
X296982Y703500D01*
Y707498D01*
X295982Y708498D01*
X298981D02*
Y702500D01*
X301980D01*
X302980Y703500D01*
Y704499D01*
X301980Y705499D01*
X298981D01*
X301980D01*
X302980Y706499D01*
Y707498D01*
X301980Y708498D01*
X298981D01*
X304979Y701500D02*
X308978D01*
X310977Y708498D02*
Y702500D01*
Y705499D01*
X314976D01*
Y708498D01*
Y702500D01*
X316975Y708498D02*
Y704499D01*
X318974Y702500D01*
X320974Y704499D01*
Y708498D01*
X281502Y360000D02*
Y363999D01*
Y361999D01*
X287500D01*
Y365998D02*
X281502D01*
X283501Y367997D01*
X281502Y369997D01*
X287500D01*
X282502Y375995D02*
X281502Y374995D01*
Y372996D01*
X282502Y371996D01*
X286500D01*
X287500Y372996D01*
Y374995D01*
X286500Y375995D01*
X287500Y381993D02*
Y377994D01*
X283501Y381993D01*
X282502D01*
X281502Y380993D01*
Y378994D01*
X282502Y377994D01*
X287500Y383992D02*
Y385992D01*
Y384992D01*
X281502D01*
X282502Y383992D01*
X281502Y392989D02*
X282502Y390990D01*
X284501Y388991D01*
X286500D01*
X287500Y389990D01*
Y391990D01*
X286500Y392989D01*
X285501D01*
X284501Y391990D01*
Y388991D01*
X282502Y394989D02*
X281502Y395988D01*
Y397988D01*
X282502Y398987D01*
X286500D01*
X287500Y397988D01*
Y395988D01*
X286500Y394989D01*
X282502D01*
X284501Y400987D02*
Y404985D01*
X281502Y406985D02*
X287500D01*
Y409984D01*
X286500Y410984D01*
X285501D01*
X284501Y409984D01*
Y406985D01*
Y409984D01*
X283501Y410984D01*
X282502D01*
X281502Y409984D01*
Y406985D01*
Y415982D02*
Y413982D01*
X282502Y412983D01*
X286500D01*
X287500Y413982D01*
Y415982D01*
X286500Y416982D01*
X282502D01*
X281502Y415982D01*
Y418981D02*
X287500D01*
Y421980D01*
X286500Y422980D01*
X285501D01*
X284501Y421980D01*
Y418981D01*
Y421980D01*
X283501Y422980D01*
X282502D01*
X281502Y421980D01*
Y418981D01*
X288500Y424979D02*
Y428978D01*
X281502Y430977D02*
X287500D01*
X284501D01*
Y434976D01*
X281502D01*
X287500D01*
X281502Y436975D02*
X285501D01*
X287500Y438974D01*
X285501Y440974D01*
X281502D01*
X742598Y592100D02*
X736600D01*
Y589101D01*
X737600Y588101D01*
X741598D01*
X742598Y589101D01*
Y592100D01*
Y586102D02*
X736600D01*
Y583103D01*
X737600Y582103D01*
X738599D01*
X739599Y583103D01*
Y586102D01*
Y583103D01*
X740599Y582103D01*
X741598D01*
X742598Y583103D01*
Y586102D01*
X736600Y576105D02*
Y580104D01*
X740599Y576105D01*
X741598D01*
X742598Y577105D01*
Y579104D01*
X741598Y580104D01*
X742598Y570107D02*
Y574106D01*
X739599D01*
X740599Y572107D01*
Y571107D01*
X739599Y570107D01*
X737600D01*
X736600Y571107D01*
Y573106D01*
X737600Y574106D01*
X481700Y375900D02*
Y381898D01*
X484699D01*
X485699Y380898D01*
Y378899D01*
X484699Y377899D01*
X481700D01*
X487698Y381898D02*
Y375900D01*
X489697Y377899D01*
X491697Y375900D01*
Y381898D01*
X493696Y375900D02*
Y381898D01*
X496695D01*
X497695Y380898D01*
Y378899D01*
X496695Y377899D01*
X493696D01*
X495695D02*
X497695Y375900D01*
X617500Y460998D02*
Y455000D01*
Y456999D01*
X621499Y460998D01*
X618500Y457999D01*
X621499Y455000D01*
X623498Y460998D02*
Y455000D01*
X626497D01*
X627497Y456000D01*
Y456999D01*
X626497Y457999D01*
X623498D01*
X626497D01*
X627497Y458999D01*
Y459998D01*
X626497Y460998D01*
X623498D01*
X629496Y459998D02*
X630496Y460998D01*
X632495D01*
X633495Y459998D01*
Y458999D01*
X632495Y457999D01*
X633495Y456999D01*
Y456000D01*
X632495Y455000D01*
X630496D01*
X629496Y456000D01*
Y456999D01*
X630496Y457999D01*
X629496Y458999D01*
Y459998D01*
X630496Y457999D02*
X632495D01*
X635494Y455000D02*
X637494D01*
X636494D01*
Y460998D01*
X635494Y459998D01*
X640493Y460998D02*
X644491D01*
Y459998D01*
X640493Y456000D01*
Y455000D01*
X600000Y708498D02*
X603999D01*
X601999D01*
Y702500D01*
X605998D02*
Y708498D01*
X607997Y706499D01*
X609997Y708498D01*
Y702500D01*
X615995Y707498D02*
X614995Y708498D01*
X612996D01*
X611996Y707498D01*
Y703500D01*
X612996Y702500D01*
X614995D01*
X615995Y703500D01*
X621993Y702500D02*
X617994D01*
X621993Y706499D01*
Y707498D01*
X620993Y708498D01*
X618994D01*
X617994Y707498D01*
X623992Y702500D02*
X625992D01*
X624992D01*
Y708498D01*
X623992Y707498D01*
X632989Y708498D02*
X630990Y707498D01*
X628991Y705499D01*
Y703500D01*
X629990Y702500D01*
X631990D01*
X632989Y703500D01*
Y704499D01*
X631990Y705499D01*
X628991D01*
X634989Y707498D02*
X635988Y708498D01*
X637988D01*
X638987Y707498D01*
Y703500D01*
X637988Y702500D01*
X635988D01*
X634989Y703500D01*
Y707498D01*
X640987Y705499D02*
X644985D01*
X646985Y708498D02*
Y702500D01*
X649984D01*
X650983Y703500D01*
Y704499D01*
X649984Y705499D01*
X646985D01*
X649984D01*
X650983Y706499D01*
Y707498D01*
X649984Y708498D01*
X646985D01*
X655982D02*
X653982D01*
X652983Y707498D01*
Y703500D01*
X653982Y702500D01*
X655982D01*
X656982Y703500D01*
Y707498D01*
X655982Y708498D01*
X658981D02*
Y702500D01*
X661980D01*
X662980Y703500D01*
Y704499D01*
X661980Y705499D01*
X658981D01*
X661980D01*
X662980Y706499D01*
Y707498D01*
X661980Y708498D01*
X658981D01*
X664979Y701500D02*
X668978D01*
X670977Y708498D02*
Y702500D01*
Y705499D01*
X674976D01*
Y708498D01*
Y702500D01*
X676975Y708498D02*
Y704499D01*
X678974Y702500D01*
X680974Y704499D01*
Y708498D01*
X600000Y610998D02*
X603999D01*
X601999D01*
Y605000D01*
X605998D02*
Y610998D01*
X607997Y608999D01*
X609997Y610998D01*
Y605000D01*
X615995Y609998D02*
X614995Y610998D01*
X612996D01*
X611996Y609998D01*
Y606000D01*
X612996Y605000D01*
X614995D01*
X615995Y606000D01*
X621993Y605000D02*
X617994D01*
X621993Y608999D01*
Y609998D01*
X620993Y610998D01*
X618994D01*
X617994Y609998D01*
X623992Y605000D02*
X625992D01*
X624992D01*
Y610998D01*
X623992Y609998D01*
X632989Y610998D02*
X630990Y609998D01*
X628991Y607999D01*
Y606000D01*
X629990Y605000D01*
X631990D01*
X632989Y606000D01*
Y606999D01*
X631990Y607999D01*
X628991D01*
X634989Y609998D02*
X635988Y610998D01*
X637988D01*
X638987Y609998D01*
Y606000D01*
X637988Y605000D01*
X635988D01*
X634989Y606000D01*
Y609998D01*
X640987Y607999D02*
X644985D01*
X646985Y610998D02*
Y605000D01*
X649984D01*
X650983Y606000D01*
Y606999D01*
X649984Y607999D01*
X646985D01*
X649984D01*
X650983Y608999D01*
Y609998D01*
X649984Y610998D01*
X646985D01*
X655982D02*
X653982D01*
X652983Y609998D01*
Y606000D01*
X653982Y605000D01*
X655982D01*
X656982Y606000D01*
Y609998D01*
X655982Y610998D01*
X658981D02*
Y605000D01*
X661980D01*
X662980Y606000D01*
Y606999D01*
X661980Y607999D01*
X658981D01*
X661980D01*
X662980Y608999D01*
Y609998D01*
X661980Y610998D01*
X658981D01*
X664979Y604000D02*
X668978D01*
X670977Y610998D02*
Y605000D01*
X674976D01*
X676975Y610998D02*
Y606999D01*
X678974Y605000D01*
X680974Y606999D01*
Y610998D01*
X615600Y652998D02*
X619599D01*
Y651998D01*
X615600Y648000D01*
Y647000D01*
X624597D02*
Y652998D01*
X621598Y649999D01*
X625597D01*
X627596Y652998D02*
Y647000D01*
Y649999D01*
X631595D01*
Y652998D01*
Y647000D01*
X637593Y651998D02*
X636593Y652998D01*
X634594D01*
X633594Y651998D01*
Y648000D01*
X634594Y647000D01*
X636593D01*
X637593Y648000D01*
X639592Y647000D02*
X641592D01*
X640592D01*
Y652998D01*
X639592Y651998D01*
X648589Y652998D02*
X644591D01*
Y649999D01*
X646590Y650999D01*
X647590D01*
X648589Y649999D01*
Y648000D01*
X647590Y647000D01*
X645590D01*
X644591Y648000D01*
X650589Y652998D02*
X654587D01*
Y651998D01*
X650589Y648000D01*
Y647000D01*
X360000Y708498D02*
X363999D01*
X361999D01*
Y702500D01*
X365998D02*
Y708498D01*
X367997Y706499D01*
X369997Y708498D01*
Y702500D01*
X375995Y707498D02*
X374995Y708498D01*
X372996D01*
X371996Y707498D01*
Y703500D01*
X372996Y702500D01*
X374995D01*
X375995Y703500D01*
X381993Y702500D02*
X377994D01*
X381993Y706499D01*
Y707498D01*
X380993Y708498D01*
X378994D01*
X377994Y707498D01*
X383992Y702500D02*
X385992D01*
X384992D01*
Y708498D01*
X383992Y707498D01*
X392989Y708498D02*
X390990Y707498D01*
X388991Y705499D01*
Y703500D01*
X389990Y702500D01*
X391990D01*
X392989Y703500D01*
Y704499D01*
X391990Y705499D01*
X388991D01*
X394989Y707498D02*
X395988Y708498D01*
X397988D01*
X398987Y707498D01*
Y703500D01*
X397988Y702500D01*
X395988D01*
X394989Y703500D01*
Y707498D01*
X400987Y705499D02*
X404985D01*
X406985Y708498D02*
Y702500D01*
X409984D01*
X410984Y703500D01*
Y704499D01*
X409984Y705499D01*
X406985D01*
X409984D01*
X410984Y706499D01*
Y707498D01*
X409984Y708498D01*
X406985D01*
X415982D02*
X413982D01*
X412983Y707498D01*
Y703500D01*
X413982Y702500D01*
X415982D01*
X416982Y703500D01*
Y707498D01*
X415982Y708498D01*
X418981D02*
Y702500D01*
X421980D01*
X422980Y703500D01*
Y704499D01*
X421980Y705499D01*
X418981D01*
X421980D01*
X422980Y706499D01*
Y707498D01*
X421980Y708498D01*
X418981D01*
X424979Y701500D02*
X428978D01*
X430977Y708498D02*
Y702500D01*
Y705499D01*
X434976D01*
Y708498D01*
Y702500D01*
X436975Y708498D02*
Y704499D01*
X438974Y702500D01*
X440974Y704499D01*
Y708498D01*
X480000D02*
X483999D01*
X481999D01*
Y702500D01*
X485998D02*
Y708498D01*
X487997Y706499D01*
X489997Y708498D01*
Y702500D01*
X495995Y707498D02*
X494995Y708498D01*
X492996D01*
X491996Y707498D01*
Y703500D01*
X492996Y702500D01*
X494995D01*
X495995Y703500D01*
X501993Y702500D02*
X497994D01*
X501993Y706499D01*
Y707498D01*
X500993Y708498D01*
X498994D01*
X497994Y707498D01*
X503992Y702500D02*
X505992D01*
X504992D01*
Y708498D01*
X503992Y707498D01*
X512989Y708498D02*
X510990Y707498D01*
X508991Y705499D01*
Y703500D01*
X509990Y702500D01*
X511990D01*
X512989Y703500D01*
Y704499D01*
X511990Y705499D01*
X508991D01*
X514989Y707498D02*
X515988Y708498D01*
X517988D01*
X518987Y707498D01*
Y703500D01*
X517988Y702500D01*
X515988D01*
X514989Y703500D01*
Y707498D01*
X520987Y705499D02*
X524986D01*
X526985Y708498D02*
Y702500D01*
X529984D01*
X530983Y703500D01*
Y704499D01*
X529984Y705499D01*
X526985D01*
X529984D01*
X530983Y706499D01*
Y707498D01*
X529984Y708498D01*
X526985D01*
X535982D02*
X533983D01*
X532983Y707498D01*
Y703500D01*
X533983Y702500D01*
X535982D01*
X536982Y703500D01*
Y707498D01*
X535982Y708498D01*
X538981D02*
Y702500D01*
X541980D01*
X542980Y703500D01*
Y704499D01*
X541980Y705499D01*
X538981D01*
X541980D01*
X542980Y706499D01*
Y707498D01*
X541980Y708498D01*
X538981D01*
X544979Y701500D02*
X548978D01*
X550977Y708498D02*
Y702500D01*
Y705499D01*
X554976D01*
Y708498D01*
Y702500D01*
X556975Y708498D02*
Y704499D01*
X558974Y702500D01*
X560974Y704499D01*
Y708498D01*
X360000Y610998D02*
X363999D01*
X361999D01*
Y605000D01*
X365998D02*
Y610998D01*
X367997Y608999D01*
X369997Y610998D01*
Y605000D01*
X375995Y609998D02*
X374995Y610998D01*
X372996D01*
X371996Y609998D01*
Y606000D01*
X372996Y605000D01*
X374995D01*
X375995Y606000D01*
X381993Y605000D02*
X377994D01*
X381993Y608999D01*
Y609998D01*
X380993Y610998D01*
X378994D01*
X377994Y609998D01*
X383992Y605000D02*
X385992D01*
X384992D01*
Y610998D01*
X383992Y609998D01*
X392989Y610998D02*
X390990Y609998D01*
X388991Y607999D01*
Y606000D01*
X389990Y605000D01*
X391990D01*
X392989Y606000D01*
Y606999D01*
X391990Y607999D01*
X388991D01*
X394989Y609998D02*
X395988Y610998D01*
X397988D01*
X398987Y609998D01*
Y606000D01*
X397988Y605000D01*
X395988D01*
X394989Y606000D01*
Y609998D01*
X400987Y607999D02*
X404985D01*
X406985Y610998D02*
Y605000D01*
X409984D01*
X410984Y606000D01*
Y606999D01*
X409984Y607999D01*
X406985D01*
X409984D01*
X410984Y608999D01*
Y609998D01*
X409984Y610998D01*
X406985D01*
X415982D02*
X413982D01*
X412983Y609998D01*
Y606000D01*
X413982Y605000D01*
X415982D01*
X416982Y606000D01*
Y609998D01*
X415982Y610998D01*
X418981D02*
Y605000D01*
X421980D01*
X422980Y606000D01*
Y606999D01*
X421980Y607999D01*
X418981D01*
X421980D01*
X422980Y608999D01*
Y609998D01*
X421980Y610998D01*
X418981D01*
X424979Y604000D02*
X428978D01*
X430977Y610998D02*
Y605000D01*
X434976D01*
X436975Y610998D02*
Y606999D01*
X438974Y605000D01*
X440974Y606999D01*
Y610998D01*
X555300Y525900D02*
X561298D01*
X559299Y523901D01*
X561298Y521901D01*
X555300D01*
X561298Y516903D02*
Y518902D01*
X560298Y519902D01*
X556300D01*
X555300Y518902D01*
Y516903D01*
X556300Y515903D01*
X560298D01*
X561298Y516903D01*
Y513904D02*
Y509905D01*
Y511904D01*
X555300D01*
X561298Y503907D02*
Y507906D01*
X558299D01*
X559299Y505906D01*
Y504907D01*
X558299Y503907D01*
X556300D01*
X555300Y504907D01*
Y506906D01*
X556300Y507906D01*
X590498Y519001D02*
X591498Y520001D01*
Y522000D01*
X590498Y523000D01*
X589499D01*
X588499Y522000D01*
Y520001D01*
X587499Y519001D01*
X586500D01*
X585500Y520001D01*
Y522000D01*
X586500Y523000D01*
X591498Y513003D02*
Y517002D01*
X585500D01*
Y513003D01*
X588499Y517002D02*
Y515003D01*
X591498Y511004D02*
X585500D01*
Y507005D01*
X590998Y405000D02*
X585000D01*
X587999D01*
Y401001D01*
X590998D01*
X585000D01*
X590998Y395003D02*
Y399002D01*
X585000D01*
Y395003D01*
X587999Y399002D02*
Y397003D01*
X585000Y393004D02*
X588999D01*
X590998Y391004D01*
X588999Y389005D01*
X585000D01*
X587999D01*
Y393004D01*
X590998Y387006D02*
Y383007D01*
Y385006D01*
X585000D01*
X585300Y483600D02*
X591298D01*
Y480601D01*
X590298Y479601D01*
X588299D01*
X587299Y480601D01*
Y483600D01*
Y481601D02*
X585300Y479601D01*
X591298Y477602D02*
X586300D01*
X585300Y476602D01*
Y474603D01*
X586300Y473603D01*
X591298D01*
X585300Y471604D02*
X591298D01*
X585300Y467605D01*
X591298D01*
X589998Y439801D02*
X590998Y440801D01*
Y442800D01*
X589998Y443800D01*
X588999D01*
X587999Y442800D01*
Y440801D01*
X586999Y439801D01*
X586000D01*
X585000Y440801D01*
Y442800D01*
X586000Y443800D01*
X585000Y437802D02*
X590998D01*
Y434803D01*
X589998Y433803D01*
X587999D01*
X586999Y434803D01*
Y437802D01*
X590998Y431804D02*
X585000D01*
Y428805D01*
X586000Y427805D01*
X589998D01*
X590998Y428805D01*
Y431804D01*
X604902Y397789D02*
X603902Y398789D01*
Y400788D01*
X604902Y401788D01*
X608900D01*
X609900Y400788D01*
Y398789D01*
X608900Y397789D01*
X604902D01*
X609900Y403787D02*
X608900D01*
Y404787D01*
X609900D01*
Y403787D01*
Y408785D02*
Y410785D01*
Y409785D01*
X603902D01*
X604902Y408785D01*
X605901Y413784D02*
X608900D01*
X609900Y414783D01*
Y417782D01*
X605901D01*
X603902Y423781D02*
Y419782D01*
X606901D01*
Y421781D01*
Y419782D01*
X609900D01*
X435602Y426400D02*
X441600D01*
Y430399D01*
Y432398D02*
X435602D01*
X437601Y434397D01*
X435602Y436397D01*
X441600D01*
Y442395D02*
Y438396D01*
X437601Y442395D01*
X436602D01*
X435602Y441395D01*
Y439396D01*
X436602Y438396D01*
X435602Y448393D02*
Y444394D01*
X438601D01*
X437601Y446393D01*
Y447393D01*
X438601Y448393D01*
X440600D01*
X441600Y447393D01*
Y445394D01*
X440600Y444394D01*
X435602Y450392D02*
Y454391D01*
X436602D01*
X440600Y450392D01*
X441600D01*
X435602Y460389D02*
Y456390D01*
X438601D01*
X437601Y458390D01*
Y459389D01*
X438601Y460389D01*
X440600D01*
X441600Y459389D01*
Y457390D01*
X440600Y456390D01*
X462600Y401700D02*
Y403699D01*
Y402700D01*
X456602D01*
X457602Y401700D01*
Y406698D02*
X456602Y407698D01*
Y409697D01*
X457602Y410697D01*
X461600D01*
X462600Y409697D01*
Y407698D01*
X461600Y406698D01*
X457602D01*
Y412696D02*
X456602Y413696D01*
Y415695D01*
X457602Y416695D01*
X461600D01*
X462600Y415695D01*
Y413696D01*
X461600Y412696D01*
X457602D01*
X458601Y418694D02*
X461600D01*
X462600Y419694D01*
Y422693D01*
X458601D01*
X456602Y428691D02*
Y424693D01*
X459601D01*
Y426692D01*
Y424693D01*
X462600D01*
X461798Y489200D02*
X462798Y488200D01*
Y486201D01*
X461798Y485201D01*
X460799D01*
X459799Y486201D01*
Y487201D01*
Y486201D01*
X458799Y485201D01*
X457800D01*
X456800Y486201D01*
Y488200D01*
X457800Y489200D01*
X461798Y483202D02*
X462798Y482202D01*
Y480203D01*
X461798Y479203D01*
X460799D01*
X459799Y480203D01*
Y481203D01*
Y480203D01*
X458799Y479203D01*
X457800D01*
X456800Y480203D01*
Y482202D01*
X457800Y483202D01*
X461798Y477204D02*
X462798Y476204D01*
Y474205D01*
X461798Y473205D01*
X457800D01*
X456800Y474205D01*
Y476204D01*
X457800Y477204D01*
X461798D01*
X460799Y471206D02*
X457800D01*
X456800Y470206D01*
Y467207D01*
X460799D01*
X462798Y465208D02*
X456800D01*
X459799D01*
Y461209D01*
X462798D01*
X456800D01*
X507902Y426000D02*
X506902Y427000D01*
Y428999D01*
X507902Y429999D01*
X508901D01*
X509901Y428999D01*
Y427999D01*
Y428999D01*
X510901Y429999D01*
X511900D01*
X512900Y428999D01*
Y427000D01*
X511900Y426000D01*
X507902Y431998D02*
X506902Y432998D01*
Y434997D01*
X507902Y435997D01*
X508901D01*
X509901Y434997D01*
Y433997D01*
Y434997D01*
X510901Y435997D01*
X511900D01*
X512900Y434997D01*
Y432998D01*
X511900Y431998D01*
X507902Y437996D02*
X506902Y438996D01*
Y440995D01*
X507902Y441995D01*
X511900D01*
X512900Y440995D01*
Y438996D01*
X511900Y437996D01*
X507902D01*
X508901Y443994D02*
X511900D01*
X512900Y444994D01*
Y447993D01*
X508901D01*
X506902Y453991D02*
Y449992D01*
X509901D01*
Y451992D01*
Y449992D01*
X512900D01*
X379002Y360000D02*
Y363999D01*
Y361999D01*
X385000D01*
Y365998D02*
X379002D01*
X381001Y367997D01*
X379002Y369997D01*
X385000D01*
X380002Y375995D02*
X379002Y374995D01*
Y372996D01*
X380002Y371996D01*
X384000D01*
X385000Y372996D01*
Y374995D01*
X384000Y375995D01*
X385000Y381993D02*
Y377994D01*
X381001Y381993D01*
X380002D01*
X379002Y380993D01*
Y378994D01*
X380002Y377994D01*
X385000Y383992D02*
Y385992D01*
Y384992D01*
X379002D01*
X380002Y383992D01*
X379002Y392989D02*
X380002Y390990D01*
X382001Y388991D01*
X384000D01*
X385000Y389990D01*
Y391990D01*
X384000Y392989D01*
X383001D01*
X382001Y391990D01*
Y388991D01*
X380002Y394989D02*
X379002Y395988D01*
Y397988D01*
X380002Y398987D01*
X384000D01*
X385000Y397988D01*
Y395988D01*
X384000Y394989D01*
X380002D01*
X382001Y400987D02*
Y404985D01*
X379002Y406985D02*
X385000D01*
Y409984D01*
X384000Y410984D01*
X383001D01*
X382001Y409984D01*
Y406985D01*
Y409984D01*
X381001Y410984D01*
X380002D01*
X379002Y409984D01*
Y406985D01*
Y415982D02*
Y413982D01*
X380002Y412983D01*
X384000D01*
X385000Y413982D01*
Y415982D01*
X384000Y416982D01*
X380002D01*
X379002Y415982D01*
Y418981D02*
X385000D01*
Y421980D01*
X384000Y422980D01*
X383001D01*
X382001Y421980D01*
Y418981D01*
Y421980D01*
X381001Y422980D01*
X380002D01*
X379002Y421980D01*
Y418981D01*
X386000Y424979D02*
Y428978D01*
X379002Y430977D02*
X385000D01*
Y434976D01*
X379002Y436975D02*
X383001D01*
X385000Y438974D01*
X383001Y440974D01*
X379002D01*
X622500Y402500D02*
Y406499D01*
X624499Y408498D01*
X626499Y406499D01*
Y402500D01*
Y405499D01*
X622500D01*
X632497Y407498D02*
X631497Y408498D01*
X629498D01*
X628498Y407498D01*
Y403500D01*
X629498Y402500D01*
X631497D01*
X632497Y403500D01*
X638495Y407498D02*
X637495Y408498D01*
X635496D01*
X634496Y407498D01*
Y406499D01*
X635496Y405499D01*
X637495D01*
X638495Y404499D01*
Y403500D01*
X637495Y402500D01*
X635496D01*
X634496Y403500D01*
X640494Y408498D02*
X644493D01*
Y407498D01*
X640494Y403500D01*
Y402500D01*
X650491D02*
X646492D01*
X650491Y406499D01*
Y407498D01*
X649491Y408498D01*
X647492D01*
X646492Y407498D01*
X656489Y402500D02*
X652490D01*
X656489Y406499D01*
Y407498D01*
X655489Y408498D01*
X653490D01*
X652490Y407498D01*
X677198Y456700D02*
Y454701D01*
Y455700D01*
X671200D01*
Y456700D01*
Y454701D01*
Y451702D02*
X677198D01*
Y448703D01*
X676198Y447703D01*
X674199D01*
X673199Y448703D01*
Y451702D01*
Y449702D02*
X671200Y447703D01*
X677198Y441705D02*
Y445704D01*
X674199D01*
Y443704D01*
Y445704D01*
X671200D01*
X676198Y439706D02*
X677198Y438706D01*
Y436706D01*
X676198Y435707D01*
X675199D01*
X674199Y436706D01*
Y437706D01*
Y436706D01*
X673199Y435707D01*
X672200D01*
X671200Y436706D01*
Y438706D01*
X672200Y439706D01*
X671200Y430708D02*
X677198D01*
X674199Y433707D01*
Y429709D01*
X671200Y427709D02*
Y425710D01*
Y426710D01*
X677198D01*
X676198Y427709D01*
X677198Y418712D02*
Y422711D01*
X674199D01*
X675199Y420712D01*
Y419712D01*
X674199Y418712D01*
X672200D01*
X671200Y419712D01*
Y421711D01*
X672200Y422711D01*
X652500Y390998D02*
Y385000D01*
X656499D01*
X661497Y390998D02*
X659498D01*
X658498Y389998D01*
Y386000D01*
X659498Y385000D01*
X661497D01*
X662497Y386000D01*
Y389998D01*
X661497Y390998D01*
X664496Y385000D02*
Y388999D01*
X666496Y390998D01*
X668495Y388999D01*
Y385000D01*
Y387999D01*
X664496D01*
X670494Y390998D02*
Y385000D01*
X673493D01*
X674493Y386000D01*
Y389998D01*
X673493Y390998D01*
X670494D01*
X676492Y387999D02*
X680491D01*
D12*
X419252Y527500D02*
Y537500D01*
X379252Y527500D02*
X419252D01*
X379252Y537500D02*
X419252D01*
X379252Y527500D02*
Y537500D01*
X485000Y480000D02*
X495000D01*
Y460000D02*
Y480000D01*
X485000Y460000D02*
X495000D01*
X485000D02*
Y480000D01*
Y385000D02*
Y405000D01*
Y385000D02*
X495000D01*
Y405000D01*
X485000D02*
X495000D01*
X627854Y398898D02*
X647146D01*
X627854Y411102D02*
X647146D01*
X627854Y398898D02*
Y411102D01*
X647146Y398898D02*
Y411102D01*
D13*
X628627Y399649D02*
D03*
M02*
